{
  "accessors": [
    {
      "bufferView": 2,
      "componentType": 5126,
      "count": 1768,
      "max": [
        0.5625,
        0.020833300426602364,
        0.8958330154418945
      ],
      "min": [
        0.5416669845581055,
        -0.9375,
        0.0625
      ],
      "type": "VEC3"
    },
    {
      "bufferView": 2,
      "byteOffset": 21216,
      "componentType": 5126,
      "count": 1768,
      "max": [
        1.0,
        1.0,
        1.0
      ],
      "min": [
        0.0,
        -1.0,
        -1.0
      ],
      "type": "VEC3"
    },
    {
      "bufferView": 1,
      "componentType": 5126,
      "count": 1768,
      "max": [
        0.8769530057907104,
        0.9980469942092896
      ],
      "min": [
        0.8457030057907104,
        0.9667969942092896
      ],
      "type": "VEC2"
    },
    {
      "bufferView": 0,
      "componentType": 5125,
      "count": 2652,
      "type": "SCALAR"
    },
    {
      "bufferView": 2,
      "byteOffset": 42432,
      "componentType": 5126,
      "count": 364,
      "max": [
        0.5625,
        -0.375,
        0.7083330154418945
      ],
      "min": [
        0.5416669845581055,
        -0.7083330154418945,
        0.0625
      ],
      "type": "VEC3"
    },
    {
      "bufferView": 2,
      "byteOffset": 46800,
      "componentType": 5126,
      "count": 364,
      "max": [
        1.0,
        1.0,
        1.0
      ],
      "min": [
        0.0,
        -1.0,
        -1.0
      ],
      "type": "VEC3"
    },
    {
      "bufferView": 1,
      "byteOffset": 14144,
      "componentType": 5126,
      "count": 364,
      "max": [
        0.17382800579071045,
        0.6816409826278687
      ],
      "min": [
        0.14257800579071045,
        0.6503909826278687
      ],
      "type": "VEC2"
    },
    {
      "bufferView": 0,
      "byteOffset": 10608,
      "componentType": 5125,
      "count": 546,
      "type": "SCALAR"
    },
    {
      "bufferView": 2,
      "byteOffset": 51168,
      "componentType": 5126,
      "count": 388,
      "max": [
        0.5625,
        -0.22916699945926666,
        0.7291669845581055
      ],
      "min": [
        0.5416669845581055,
        -0.7291669845581055,
        0.0625
      ],
      "type": "VEC3"
    },
    {
      "bufferView": 2,
      "byteOffset": 55824,
      "componentType": 5126,
      "count": 388,
      "max": [
        1.0,
        1.0,
        1.0
      ],
      "min": [
        0.0,
        -1.0,
        -1.0
      ],
      "type": "VEC3"
    },
    {
      "bufferView": 1,
      "byteOffset": 17056,
      "componentType": 5126,
      "count": 388,
      "max": [
        0.6308590173721313,
        0.9980469942092896
      ],
      "min": [
        0.07226560264825821,
        0.5449219942092896
      ],
      "type": "VEC2"
    },
    {
      "bufferView": 0,
      "byteOffset": 12792,
      "componentType": 5125,
      "count": 582,
      "type": "SCALAR"
    },
    {
      "bufferView": 2,
      "byteOffset": 60480,
      "componentType": 5126,
      "count": 6856,
      "max": [
        0.5416669845581055,
        0.020833300426602364,
        0.9791669845581055
      ],
      "min": [
        0.5208330154418945,
        -0.9375,
        0.0
      ],
      "type": "VEC3"
    },
    {
      "bufferView": 2,
      "byteOffset": 142752,
      "componentType": 5126,
      "count": 6856,
      "max": [
        1.0,
        1.0,
        1.0
      ],
      "min": [
        -1.0,
        -1.0,
        -1.0
      ],
      "type": "VEC3"
    },
    {
      "bufferView": 1,
      "byteOffset": 20160,
      "componentType": 5126,
      "count": 6856,
      "max": [
        0.10351599752902985,
        0.5410159826278687
      ],
      "min": [
        0.07226560264825821,
        0.5097659826278687
      ],
      "type": "VEC2"
    },
    {
      "bufferView": 0,
      "byteOffset": 15120,
      "componentType": 5125,
      "count": 10284,
      "type": "SCALAR"
    },
    {
      "bufferView": 2,
      "byteOffset": 225024,
      "componentType": 5126,
      "count": 3496,
      "max": [
        0.5625,
        0.041666701436042786,
        1.0
      ],
      "min": [
        0.5208330154418945,
        -0.9375,
        0.0
      ],
      "type": "VEC3"
    },
    {
      "bufferView": 2,
      "byteOffset": 266976,
      "componentType": 5126,
      "count": 3496,
      "max": [
        1.0,
        1.0,
        1.0
      ],
      "min": [
        -1.0,
        -1.0,
        -1.0
      ],
      "type": "VEC3"
    },
    {
      "bufferView": 1,
      "byteOffset": 75008,
      "componentType": 5126,
      "count": 3496,
      "max": [
        0.5605469942092896,
        0.6113280057907104
      ],
      "min": [
        0.5292969942092896,
        0.5800780057907104
      ],
      "type": "VEC2"
    },
    {
      "bufferView": 0,
      "byteOffset": 56256,
      "componentType": 5125,
      "count": 5244,
      "type": "SCALAR"
    },
    {
      "bufferView": 2,
      "byteOffset": 308928,
      "componentType": 5126,
      "count": 116,
      "max": [
        0.5625,
        -0.375,
        0.41666701436042786
      ],
      "min": [
        0.5416669845581055,
        -0.5833330154418945,
        0.16666699945926666
      ],
      "type": "VEC3"
    },
    {
      "bufferView": 2,
      "byteOffset": 310320,
      "componentType": 5126,
      "count": 116,
      "max": [
        1.0,
        1.0,
        1.0
      ],
      "min": [
        0.0,
        -1.0,
        0.0
      ],
      "type": "VEC3"
    },
    {
      "bufferView": 1,
      "byteOffset": 102976,
      "componentType": 5126,
      "count": 116,
      "max": [
        0.06835939735174179,
        0.9980469942092896
      ],
      "min": [
        0.03710940107703209,
        0.9667969942092896
      ],
      "type": "VEC2"
    },
    {
      "bufferView": 0,
      "byteOffset": 77232,
      "componentType": 5125,
      "count": 174,
      "type": "SCALAR"
    },
    {
      "bufferView": 2,
      "byteOffset": 311712,
      "componentType": 5126,
      "count": 4228,
      "max": [
        0.5625,
        0.020833300426602364,
        0.9791669845581055
      ],
      "min": [
        0.5416669845581055,
        -0.8958330154418945,
        0.0
      ],
      "type": "VEC3"
    },
    {
      "bufferView": 2,
      "byteOffset": 362448,
      "componentType": 5126,
      "count": 4228,
      "max": [
        1.0,
        1.0,
        1.0
      ],
      "min": [
        0.0,
        -1.0,
        -1.0
      ],
      "type": "VEC3"
    },
    {
      "bufferView": 1,
      "byteOffset": 103904,
      "componentType": 5126,
      "count": 4228,
      "max": [
        0.8066409826278687,
        0.9277340173721313
      ],
      "min": [
        0.03710940107703209,
        0.6855469942092896
      ],
      "type": "VEC2"
    },
    {
      "bufferView": 0,
      "byteOffset": 77928,
      "componentType": 5125,
      "count": 6342,
      "type": "SCALAR"
    }
  ],
  "asset": {
    "extras": {
      "author": "madexc (https://sketchfab.com/madexc)",
      "license": "CC-BY-4.0 (http://creativecommons.org/licenses/by/4.0/)",
      "source": "https://sketchfab.com/3d-models/pixel-miku-cac34e15f5f34b98808522def1014988",
      "title": "pixel-miku"
    },
    "generator": "Sketchfab-15.30.0",
    "version": "2.0"
  },
  "bufferViews": [
    {
      "buffer": 0,
      "byteLength": 103296,
      "name": "floatBufferViews",
      "target": 34963
    },
    {
      "buffer": 0,
      "byteLength": 137728,
      "byteOffset": 103296,
      "byteStride": 8,
      "name": "floatBufferViews",
      "target": 34962
    },
    {
      "buffer": 0,
      "byteLength": 413184,
      "byteOffset": 241024,
      "byteStride": 12,
      "name": "floatBufferViews",
      "target": 34962
    }
  ],
  "buffers": [
    {
      "byteLength": 654208,
      "uri": "scene.bin"
    }
  ],
  "extensionsUsed": [
    "KHR_materials_specular"
  ],
  "images": [
    {
      "uri": "textures/Block_of_Diamond_baseColor.png"
    },
    {
      "uri": "textures/Stained_Glass_baseColor.png"
    }
  ],
  "materials": [
    {
      "doubleSided": true,
      "emissiveFactor": [
        0.1,
        0.1,
        0.1
      ],
      "emissiveTexture": {
        "index": 0
      },
      "extensions": {
        "KHR_materials_specular": {
          "specularColorFactor": [
            1.0,
            1.0,
            1.0
          ],
          "specularFactor": 0.0
        }
      },
      "name": "Block_of_Diamond",
      "pbrMetallicRoughness": {
        "baseColorTexture": {
          "index": 0
        },
        "metallicFactor": 0.0
      }
    },
    {
      "doubleSided": true,
      "emissiveFactor": [
        0.1,
        0.1,
        0.1
      ],
      "emissiveTexture": {
        "index": 0
      },
      "extensions": {
        "KHR_materials_specular": {
          "specularColorFactor": [
            1.0,
            1.0,
            1.0
          ],
          "specularFactor": 0.0
        }
      },
      "name": "Colored_Terracotta",
      "pbrMetallicRoughness": {
        "baseColorTexture": {
          "index": 0
        },
        "metallicFactor": 0.0
      }
    },
    {
      "doubleSided": true,
      "emissiveFactor": [
        0.1,
        0.1,
        0.1
      ],
      "emissiveTexture": {
        "index": 0
      },
      "extensions": {
        "KHR_materials_specular": {
          "specularColorFactor": [
            1.0,
            1.0,
            1.0
          ],
          "specularFactor": 0.0
        }
      },
      "name": "Oak_Planks",
      "pbrMetallicRoughness": {
        "baseColorTexture": {
          "index": 0
        },
        "metallicFactor": 0.0
      }
    },
    {
      "doubleSided": true,
      "emissiveFactor": [
        1.0,
        1.0,
        1.0
      ],
      "emissiveTexture": {
        "index": 0
      },
      "extensions": {
        "KHR_materials_specular": {
          "specularColorFactor": [
            1.0,
            1.0,
            1.0
          ],
          "specularFactor": 0.0
        }
      },
      "name": "Sea_Lantern",
      "pbrMetallicRoughness": {
        "baseColorTexture": {
          "index": 0
        },
        "metallicFactor": 0.0
      }
    },
    {
      "alphaMode": "BLEND",
      "emissiveFactor": [
        0.1,
        0.1,
        0.1
      ],
      "emissiveTexture": {
        "index": 0
      },
      "extensions": {
        "KHR_materials_specular": {
          "specularColorFactor": [
            1.0,
            1.0,
            1.0
          ],
          "specularFactor": 0.0
        }
      },
      "name": "Stained_Glass",
      "pbrMetallicRoughness": {
        "baseColorTexture": {
          "index": 1
        },
        "metallicFactor": 0.0
      }
    },
    {
      "doubleSided": true,
      "emissiveFactor": [
        0.1,
        0.1,
        0.1
      ],
      "emissiveTexture": {
        "index": 0
      },
      "extensions": {
        "KHR_materials_specular": {
          "specularColorFactor": [
            1.0,
            1.0,
            1.0
          ],
          "specularFactor": 0.0
        }
      },
      "name": "Stone",
      "pbrMetallicRoughness": {
        "baseColorTexture": {
          "index": 0
        },
        "metallicFactor": 0.0
      }
    },
    {
      "doubleSided": true,
      "emissiveFactor": [
        0.1,
        0.1,
        0.1
      ],
      "emissiveTexture": {
        "index": 0
      },
      "extensions": {
        "KHR_materials_specular": {
          "specularColorFactor": [
            1.0,
            1.0,
            1.0
          ],
          "specularFactor": 0.0
        }
      },
      "name": "Wool",
      "pbrMetallicRoughness": {
        "baseColorTexture": {
          "index": 0
        },
        "metallicFactor": 0.0
      }
    }
  ],
  "meshes": [
    {
      "name": "Object_0",
      "primitives": [
        {
          "attributes": {
            "NORMAL": 1,
            "POSITION": 0,
            "TEXCOORD_0": 2
          },
          "indices": 3,
          "material": 0,
          "mode": 4
        }
      ]
    },
    {
      "name": "Object_1",
      "primitives": [
        {
          "attributes": {
            "NORMAL": 5,
            "POSITION": 4,
            "TEXCOORD_0": 6
          },
          "indices": 7,
          "material": 1,
          "mode": 4
        }
      ]
    },
    {
      "name": "Object_2",
      "primitives": [
        {
          "attributes": {
            "NORMAL": 9,
            "POSITION": 8,
            "TEXCOORD_0": 10
          },
          "indices": 11,
          "material": 2,
          "mode": 4
        }
      ]
    },
    {
      "name": "Object_3",
      "primitives": [
        {
          "attributes": {
            "NORMAL": 13,
            "POSITION": 12,
            "TEXCOORD_0": 14
          },
          "indices": 15,
          "material": 3,
          "mode": 4
        }
      ]
    },
    {
      "name": "Object_4",
      "primitives": [
        {
          "attributes": {
            "NORMAL": 17,
            "POSITION": 16,
            "TEXCOORD_0": 18
          },
          "indices": 19,
          "material": 4,
          "mode": 4
        }
      ]
    },
    {
      "name": "Object_5",
      "primitives": [
        {
          "attributes": {
            "NORMAL": 21,
            "POSITION": 20,
            "TEXCOORD_0": 22
          },
          "indices": 23,
          "material": 5,
          "mode": 4
        }
      ]
    },
    {
      "name": "Object_6",
      "primitives": [
        {
          "attributes": {
            "NORMAL": 25,
            "POSITION": 24,
            "TEXCOORD_0": 26
          },
          "indices": 27,
          "material": 6,
          "mode": 4
        }
      ]
    }
  ],
  "nodes": [
    {
      "children": [
        1
      ],
      "matrix": [
        1.0,
        0.0,
        0.0,
        0.0,
        0.0,
        2.220446049250313e-16,
        -1.0,
        0.0,
        0.0,
        1.0,
        2.220446049250313e-16,
        0.0,
        0.0,
        0.0,
        0.0,
        1.0
      ],
      "name": "Sketchfab_model"
    },
    {
      "children": [
        2,
        3,
        4,
        5,
        6,
        7,
        8
      ],
      "name": "Mineways2Skfb.obj.minecraft.cleaner.materialmerger.gles"
    },
    {
      "mesh": 0,
      "name": "Object_2"
    },
    {
      "mesh": 1,
      "name": "Object_3"
    },
    {
      "mesh": 2,
      "name": "Object_4"
    },
    {
      "mesh": 3,
      "name": "Object_5"
    },
    {
      "mesh": 4,
      "name": "Object_6"
    },
    {
      "mesh": 5,
      "name": "Object_7"
    },
    {
      "mesh": 6,
      "name": "Object_8"
    }
  ],
  "samplers": [
    {
      "magFilter": 9728,
      "minFilter": 9986,
      "wrapS": 10497,
      "wrapT": 10497
    }
  ],
  "scene": 0,
  "scenes": [
    {
      "name": "Sketchfab_Scene",
      "nodes": [
        0
      ]
    }
  ],
  "textures": [
    {
      "sampler": 0,
      "source": 0
    },
    {
      "sampler": 0,
      "source": 1
    }
  ]
}
